<mxfile host="app.diagrams.net" agent="Mozilla/5.0 (Windows NT 10.0; Win64; x64) AppleWebKit/537.36 (KHTML, like Gecko) Chrome/129.0.0.0 Safari/537.36 Edg/129.0.0.0" version="24.7.16">
  <diagram id="prtHgNgQTEPvFCAcTncT" name="Page-1">
    <mxGraphModel dx="1042" dy="711" grid="1" gridSize="10" guides="1" tooltips="1" connect="1" arrows="1" fold="1" page="1" pageScale="1" pageWidth="827" pageHeight="1169" math="0" shadow="0">
      <root>
        <mxCell id="0" />
        <mxCell id="1" parent="0" />
        <mxCell id="_6HF92GtoGiSM8NoAgUu-1" value="" style="shape=partialRectangle;whiteSpace=wrap;html=1;bottom=1;right=1;left=1;top=0;fillColor=none;routingCenterX=-0.5;strokeWidth=3;strokeColor=#000000;" vertex="1" parent="1">
          <mxGeometry x="70" y="200" width="120" height="330" as="geometry" />
        </mxCell>
        <mxCell id="_6HF92GtoGiSM8NoAgUu-4" value="" style="rounded=1;whiteSpace=wrap;html=1;strokeColor=#66CC00;strokeWidth=2;fontStyle=1" vertex="1" parent="1">
          <mxGeometry x="70" y="470" width="120" height="60" as="geometry" />
        </mxCell>
        <mxCell id="_6HF92GtoGiSM8NoAgUu-5" value="1" style="text;strokeColor=none;fillColor=none;html=1;align=center;verticalAlign=middle;whiteSpace=wrap;rounded=0;fontSize=16;" vertex="1" parent="1">
          <mxGeometry x="100" y="485" width="60" height="30" as="geometry" />
        </mxCell>
        <mxCell id="_6HF92GtoGiSM8NoAgUu-6" value="" style="rounded=1;whiteSpace=wrap;html=1;strokeColor=#66CC00;strokeWidth=2;fontStyle=1" vertex="1" parent="1">
          <mxGeometry x="70" y="410" width="120" height="60" as="geometry" />
        </mxCell>
        <mxCell id="_6HF92GtoGiSM8NoAgUu-7" value="" style="rounded=1;whiteSpace=wrap;html=1;strokeColor=#66CC00;strokeWidth=2;fontStyle=1" vertex="1" parent="1">
          <mxGeometry x="70" y="350" width="120" height="60" as="geometry" />
        </mxCell>
        <mxCell id="_6HF92GtoGiSM8NoAgUu-8" value="" style="rounded=1;whiteSpace=wrap;html=1;strokeColor=#66CC00;strokeWidth=2;fontStyle=1" vertex="1" parent="1">
          <mxGeometry x="70" y="290" width="120" height="60" as="geometry" />
        </mxCell>
        <mxCell id="_6HF92GtoGiSM8NoAgUu-10" value="2" style="text;strokeColor=none;fillColor=none;html=1;align=center;verticalAlign=middle;whiteSpace=wrap;rounded=0;fontSize=16;" vertex="1" parent="1">
          <mxGeometry x="100" y="425" width="60" height="30" as="geometry" />
        </mxCell>
        <mxCell id="_6HF92GtoGiSM8NoAgUu-11" value="3" style="text;strokeColor=none;fillColor=none;html=1;align=center;verticalAlign=middle;whiteSpace=wrap;rounded=0;fontSize=16;" vertex="1" parent="1">
          <mxGeometry x="100" y="360" width="60" height="30" as="geometry" />
        </mxCell>
        <mxCell id="_6HF92GtoGiSM8NoAgUu-12" value="4" style="text;strokeColor=none;fillColor=none;html=1;align=center;verticalAlign=middle;whiteSpace=wrap;rounded=0;fontSize=16;" vertex="1" parent="1">
          <mxGeometry x="100" y="305" width="60" height="30" as="geometry" />
        </mxCell>
        <mxCell id="_6HF92GtoGiSM8NoAgUu-22" value="" style="shape=partialRectangle;whiteSpace=wrap;html=1;bottom=1;right=1;left=1;top=0;fillColor=none;routingCenterX=-0.5;strokeWidth=3;strokeColor=#000000;" vertex="1" parent="1">
          <mxGeometry x="280" y="200" width="120" height="330" as="geometry" />
        </mxCell>
        <mxCell id="_6HF92GtoGiSM8NoAgUu-23" value="" style="rounded=1;whiteSpace=wrap;html=1;strokeColor=#66CC00;strokeWidth=2;fontStyle=1" vertex="1" parent="1">
          <mxGeometry x="280" y="470" width="120" height="60" as="geometry" />
        </mxCell>
        <mxCell id="_6HF92GtoGiSM8NoAgUu-24" value="1" style="text;strokeColor=none;fillColor=none;html=1;align=center;verticalAlign=middle;whiteSpace=wrap;rounded=0;fontSize=16;" vertex="1" parent="1">
          <mxGeometry x="310" y="485" width="60" height="30" as="geometry" />
        </mxCell>
        <mxCell id="_6HF92GtoGiSM8NoAgUu-25" value="" style="rounded=1;whiteSpace=wrap;html=1;strokeColor=#66CC00;strokeWidth=2;fontStyle=1" vertex="1" parent="1">
          <mxGeometry x="280" y="410" width="120" height="60" as="geometry" />
        </mxCell>
        <mxCell id="_6HF92GtoGiSM8NoAgUu-26" value="" style="rounded=1;whiteSpace=wrap;html=1;strokeColor=#66CC00;strokeWidth=2;fontStyle=1" vertex="1" parent="1">
          <mxGeometry x="280" y="350" width="120" height="60" as="geometry" />
        </mxCell>
        <mxCell id="_6HF92GtoGiSM8NoAgUu-27" value="" style="rounded=1;whiteSpace=wrap;html=1;strokeColor=#66CC00;strokeWidth=2;fontStyle=1" vertex="1" parent="1">
          <mxGeometry x="280" y="290" width="120" height="60" as="geometry" />
        </mxCell>
        <mxCell id="_6HF92GtoGiSM8NoAgUu-28" value="2" style="text;strokeColor=none;fillColor=none;html=1;align=center;verticalAlign=middle;whiteSpace=wrap;rounded=0;fontSize=16;" vertex="1" parent="1">
          <mxGeometry x="310" y="425" width="60" height="30" as="geometry" />
        </mxCell>
        <mxCell id="_6HF92GtoGiSM8NoAgUu-29" value="3" style="text;strokeColor=none;fillColor=none;html=1;align=center;verticalAlign=middle;whiteSpace=wrap;rounded=0;fontSize=16;" vertex="1" parent="1">
          <mxGeometry x="310" y="360" width="60" height="30" as="geometry" />
        </mxCell>
        <mxCell id="_6HF92GtoGiSM8NoAgUu-30" value="4" style="text;strokeColor=none;fillColor=none;html=1;align=center;verticalAlign=middle;whiteSpace=wrap;rounded=0;fontSize=16;" vertex="1" parent="1">
          <mxGeometry x="310" y="305" width="60" height="30" as="geometry" />
        </mxCell>
        <mxCell id="_6HF92GtoGiSM8NoAgUu-31" value="" style="rounded=1;whiteSpace=wrap;html=1;strokeColor=#66CC00;strokeWidth=2;fontStyle=1" vertex="1" parent="1">
          <mxGeometry x="280" y="120" width="120" height="60" as="geometry" />
        </mxCell>
        <mxCell id="_6HF92GtoGiSM8NoAgUu-32" value="" style="endArrow=classic;html=1;rounded=0;fontSize=12;startSize=8;endSize=8;curved=1;" edge="1" parent="1">
          <mxGeometry width="50" height="50" relative="1" as="geometry">
            <mxPoint x="350" y="180" as="sourcePoint" />
            <mxPoint x="350.18" y="270" as="targetPoint" />
          </mxGeometry>
        </mxCell>
        <mxCell id="_6HF92GtoGiSM8NoAgUu-33" value="5" style="text;strokeColor=none;fillColor=none;html=1;align=center;verticalAlign=middle;whiteSpace=wrap;rounded=0;fontSize=16;" vertex="1" parent="1">
          <mxGeometry x="290" y="135" width="100" height="30" as="geometry" />
        </mxCell>
        <mxCell id="_6HF92GtoGiSM8NoAgUu-44" value="入栈push" style="text;strokeColor=none;fillColor=none;html=1;align=center;verticalAlign=middle;whiteSpace=wrap;rounded=0;fontSize=16;fontStyle=1" vertex="1" parent="1">
          <mxGeometry x="310" y="580" width="60" height="90" as="geometry" />
        </mxCell>
        <mxCell id="_6HF92GtoGiSM8NoAgUu-46" value="栈&lt;div&gt;stack&lt;/div&gt;" style="text;strokeColor=none;fillColor=none;html=1;align=center;verticalAlign=middle;whiteSpace=wrap;rounded=0;fontSize=16;fontStyle=1" vertex="1" parent="1">
          <mxGeometry x="100" y="580" width="60" height="90" as="geometry" />
        </mxCell>
        <mxCell id="_6HF92GtoGiSM8NoAgUu-47" value="3" style="ellipse;whiteSpace=wrap;html=1;aspect=fixed;strokeColor=#66CC00;" vertex="1" parent="1">
          <mxGeometry x="490" y="110" width="80" height="80" as="geometry" />
        </mxCell>
        <mxCell id="_6HF92GtoGiSM8NoAgUu-48" value="2" style="ellipse;whiteSpace=wrap;html=1;aspect=fixed;strokeColor=#66CC00;" vertex="1" parent="1">
          <mxGeometry x="580" y="255" width="80" height="80" as="geometry" />
        </mxCell>
        <mxCell id="_6HF92GtoGiSM8NoAgUu-49" value="1" style="ellipse;whiteSpace=wrap;html=1;aspect=fixed;strokeColor=#66CC00;" vertex="1" parent="1">
          <mxGeometry x="580" y="360" width="80" height="80" as="geometry" />
        </mxCell>
        <mxCell id="_6HF92GtoGiSM8NoAgUu-50" value="NULL" style="ellipse;whiteSpace=wrap;html=1;aspect=fixed;fillColor=#FFFFFF;strokeColor=#66CC00;" vertex="1" parent="1">
          <mxGeometry x="580" y="460" width="80" height="80" as="geometry" />
        </mxCell>
        <mxCell id="_6HF92GtoGiSM8NoAgUu-51" value="" style="endArrow=classic;html=1;rounded=0;fontSize=12;startSize=8;endSize=8;curved=1;" edge="1" parent="1" source="_6HF92GtoGiSM8NoAgUu-47">
          <mxGeometry width="50" height="50" relative="1" as="geometry">
            <mxPoint x="550" y="230" as="sourcePoint" />
            <mxPoint x="620" y="250" as="targetPoint" />
            <Array as="points">
              <mxPoint x="620" y="170" />
            </Array>
          </mxGeometry>
        </mxCell>
        <mxCell id="_6HF92GtoGiSM8NoAgUu-52" value="" style="endArrow=classic;html=1;rounded=0;fontSize=12;startSize=8;endSize=8;curved=1;entryX=0.5;entryY=0;entryDx=0;entryDy=0;exitX=0.5;exitY=1;exitDx=0;exitDy=0;" edge="1" parent="1" source="_6HF92GtoGiSM8NoAgUu-48" target="_6HF92GtoGiSM8NoAgUu-49">
          <mxGeometry width="50" height="50" relative="1" as="geometry">
            <mxPoint x="610" y="345" as="sourcePoint" />
            <mxPoint x="660" y="295" as="targetPoint" />
          </mxGeometry>
        </mxCell>
        <mxCell id="_6HF92GtoGiSM8NoAgUu-54" value="" style="endArrow=classic;html=1;rounded=0;fontSize=12;startSize=8;endSize=8;curved=1;entryX=0.5;entryY=0;entryDx=0;entryDy=0;exitX=0.5;exitY=1;exitDx=0;exitDy=0;" edge="1" parent="1">
          <mxGeometry width="50" height="50" relative="1" as="geometry">
            <mxPoint x="619.5" y="440" as="sourcePoint" />
            <mxPoint x="619.5" y="465" as="targetPoint" />
          </mxGeometry>
        </mxCell>
      </root>
    </mxGraphModel>
  </diagram>
</mxfile>
